<svg width="30" height="30" viewBox="0 0 30 30" fill="none" xmlns="http://www.w3.org/2000/svg">
<g clip-path="url(#clip0_1_1305)">
<path d="M15 2.5L8.125 13.75H21.875L15 2.5ZM15 7.3L17.4125 11.25H12.575L15 7.3ZM21.875 16.25C18.7625 16.25 16.25 18.7625 16.25 21.875C16.25 24.9875 18.7625 27.5 21.875 27.5C24.9875 27.5 27.5 24.9875 27.5 21.875C27.5 18.7625 24.9875 16.25 21.875 16.25ZM21.875 25C20.15 25 18.75 23.6 18.75 21.875C18.75 20.15 20.15 18.75 21.875 18.75C23.6 18.75 25 20.15 25 21.875C25 23.6 23.6 25 21.875 25ZM3.75 26.875H13.75V16.875H3.75V26.875ZM6.25 19.375H11.25V24.375H6.25V19.375Z" fill="white"/>
</g>
<defs>
<clipPath id="clip0_1_1305">
<rect width="30" height="30" fill="white"/>
</clipPath>
</defs>
</svg>
