<svg width="30" height="30" viewBox="0 0 30 30" fill="none" xmlns="http://www.w3.org/2000/svg">
<g clip-path="url(#clip0_1_1308)">
<path d="M19.375 6.875C20.75 6.875 21.875 5.75 21.875 4.375C21.875 3 20.75 1.875 19.375 1.875C18 1.875 16.875 3 16.875 4.375C16.875 5.75 18 6.875 19.375 6.875ZM6.25 15C2.75 15 0 17.75 0 21.25C0 24.75 2.75 27.5 6.25 27.5C9.75 27.5 12.5 24.75 12.5 21.25C12.5 17.75 9.75 15 6.25 15ZM6.25 25.625C3.875 25.625 1.875 23.625 1.875 21.25C1.875 18.875 3.875 16.875 6.25 16.875C8.625 16.875 10.625 18.875 10.625 21.25C10.625 23.625 8.625 25.625 6.25 25.625ZM13.5 13.125L16.5 10.125L17.5 11.125C19.125 12.75 21.25 13.75 23.875 13.75V11.25C22 11.25 20.5 10.5 19.375 9.375L17 7C16.375 6.5 15.75 6.25 15 6.25C14.25 6.25 13.625 6.5 13.25 7L9.75 10.5C9.25 11 9 11.625 9 12.25C9 13 9.25 13.625 9.75 14L13.75 17.5V23.75H16.25V16L13.5 13.125ZM23.75 15C20.25 15 17.5 17.75 17.5 21.25C17.5 24.75 20.25 27.5 23.75 27.5C27.25 27.5 30 24.75 30 21.25C30 17.75 27.25 15 23.75 15ZM23.75 25.625C21.375 25.625 19.375 23.625 19.375 21.25C19.375 18.875 21.375 16.875 23.75 16.875C26.125 16.875 28.125 18.875 28.125 21.25C28.125 23.625 26.125 25.625 23.75 25.625Z" fill="white"/>
</g>
<defs>
<clipPath id="clip0_1_1308">
<rect width="30" height="30" fill="white"/>
</clipPath>
</defs>
</svg>
