<svg width="34" height="35" viewBox="0 0 34 35" fill="none" xmlns="http://www.w3.org/2000/svg">
<g clip-path="url(#clip0_1_1666)">
<path d="M16.6658 17.5094C18.3057 17.5094 19.9088 17.0231 21.2724 16.112C22.6359 15.2009 23.6987 13.9059 24.3263 12.3908C24.9538 10.8757 25.118 9.20849 24.7981 7.60007C24.4782 5.99164 23.6885 4.51421 22.5288 3.3546C21.3692 2.19499 19.8918 1.40529 18.2834 1.08535C16.675 0.765415 15.0078 0.929618 13.4927 1.55719C11.9776 2.18477 10.6826 3.24753 9.77149 4.61109C8.86039 5.97465 8.37409 7.57776 8.37409 9.21769C8.37629 11.4161 9.25058 13.5238 10.8051 15.0784C12.3596 16.6329 14.4673 17.5072 16.6658 17.5094ZM16.6658 3.68992C17.759 3.68992 18.8278 4.01412 19.7368 4.62151C20.6459 5.22891 21.3544 6.09224 21.7728 7.1023C22.1911 8.11237 22.3006 9.22382 22.0873 10.2961C21.874 11.3684 21.3476 12.3533 20.5745 13.1264C19.8014 13.8995 18.8165 14.426 17.7442 14.6393C16.6719 14.8525 15.5604 14.7431 14.5504 14.3247C13.5403 13.9063 12.677 13.1978 12.0696 12.2888C11.4622 11.3797 11.138 10.311 11.138 9.21769C11.138 7.75164 11.7204 6.34562 12.757 5.30896C13.7937 4.27231 15.1997 3.68992 16.6658 3.68992V3.68992Z" fill="white"/>
<path d="M16.6657 20.2742C13.3682 20.2778 10.2068 21.5894 7.87515 23.9211C5.54346 26.2528 4.23191 29.4142 4.22825 32.7117C4.22825 33.0782 4.37385 33.4297 4.63301 33.6888C4.89218 33.948 5.24368 34.0936 5.61019 34.0936C5.97671 34.0936 6.32821 33.948 6.58737 33.6888C6.84654 33.4297 6.99214 33.0782 6.99214 32.7117C6.99214 30.1461 8.01132 27.6855 9.82547 25.8714C11.6396 24.0572 14.1001 23.0381 16.6657 23.0381C19.2313 23.0381 21.6919 24.0572 23.506 25.8714C25.3202 27.6855 26.3393 30.1461 26.3393 32.7117C26.3393 33.0782 26.4849 33.4297 26.7441 33.6888C27.0033 33.948 27.3548 34.0936 27.7213 34.0936C28.0878 34.0936 28.4393 33.948 28.6985 33.6888C28.9576 33.4297 29.1032 33.0782 29.1032 32.7117C29.0996 29.4142 27.788 26.2528 25.4563 23.9211C23.1247 21.5894 19.9632 20.2778 16.6657 20.2742V20.2742Z" fill="white"/>
</g>
<defs>
<clipPath id="clip0_1_1666">
<rect width="33.1667" height="33.1667" fill="white" transform="translate(0.082428 0.926025)"/>
</clipPath>
</defs>
</svg>
