<svg width="36" height="36" viewBox="0 0 36 36" fill="none" xmlns="http://www.w3.org/2000/svg">
<path fill-rule="evenodd" clip-rule="evenodd" d="M15.3372 6.47327C10.3401 6.47327 6.28923 10.5242 6.28923 15.5212C6.28923 20.5182 10.3401 24.5691 15.3372 24.5691C20.3342 24.5691 24.3851 20.5182 24.3851 15.5212C24.3851 10.5242 20.3342 6.47327 15.3372 6.47327ZM3.67009 15.5212C3.67009 9.07766 8.89362 3.85413 15.3372 3.85413C21.7807 3.85413 27.0043 9.07766 27.0043 15.5212C27.0043 18.2712 26.0528 20.7989 24.4612 22.7933L31.224 29.556C31.7354 30.0675 31.7354 30.8966 31.224 31.4081C30.7126 31.9195 29.8834 31.9195 29.372 31.4081L22.6092 24.6453C20.6149 26.2369 18.0871 27.1883 15.3372 27.1883C8.89362 27.1883 3.67009 21.9648 3.67009 15.5212Z" fill="black"/>
</svg>
