<svg width="35" height="36" viewBox="0 0 35 36" fill="none" xmlns="http://www.w3.org/2000/svg">
<path fill-rule="evenodd" clip-rule="evenodd" d="M15.1558 6.47327C10.1588 6.47327 6.10785 10.5242 6.10785 15.5212C6.10785 20.5182 10.1588 24.5691 15.1558 24.5691C20.1528 24.5691 24.2037 20.5182 24.2037 15.5212C24.2037 10.5242 20.1528 6.47327 15.1558 6.47327ZM3.48871 15.5212C3.48871 9.07766 8.71224 3.85413 15.1558 3.85413C21.5993 3.85413 26.8229 9.07766 26.8229 15.5212C26.8229 18.2712 25.8715 20.7989 24.2799 22.7933L31.0426 29.556C31.5541 30.0675 31.5541 30.8966 31.0426 31.4081C30.5312 31.9195 29.702 31.9195 29.1906 31.4081L22.4278 24.6453C20.4335 26.2369 17.9058 27.1883 15.1558 27.1883C8.71224 27.1883 3.48871 21.9648 3.48871 15.5212Z" fill="white"/>
</svg>
