<svg width="36" height="152" viewBox="0 0 36 152" fill="none" xmlns="http://www.w3.org/2000/svg">
<g filter="url(#filter0_d_1_932)">
<ellipse cx="17.8042" cy="55.6888" rx="13.6646" ry="13.9242" fill="#3F4C69"/>
<path d="M30.1024 55.6888C30.1024 62.6486 24.5722 68.2465 17.8042 68.2465C11.0363 68.2465 5.50611 62.6486 5.50611 55.6888C5.50611 48.729 11.0363 43.1311 17.8042 43.1311C24.5722 43.1311 30.1024 48.729 30.1024 55.6888Z" stroke="white" stroke-width="2.73292"/>
</g>
<path d="M26.4586 10.2031C26.4586 15.0864 22.5759 19.0304 17.8043 19.0304C13.0327 19.0304 9.15007 15.0864 9.15007 10.2031C9.15007 5.31982 13.0327 1.37582 17.8043 1.37582C22.5759 1.37582 26.4586 5.31982 26.4586 10.2031Z" fill="#019DB5" stroke="white" stroke-width="0.910973"/>
<path d="M26.4586 101.175C26.4586 106.058 22.5759 110.002 17.8043 110.002C13.0327 110.002 9.15007 106.058 9.15007 101.175C9.15007 96.2912 13.0327 92.3472 17.8043 92.3472C22.5759 92.3472 26.4586 96.2912 26.4586 101.175Z" fill="#E24229" stroke="white" stroke-width="0.910973"/>
<path d="M26.4586 142.019C26.4586 146.902 22.5759 150.846 17.8043 150.846C13.0327 150.846 9.15007 146.902 9.15007 142.019C9.15007 137.135 13.0327 133.191 17.8043 133.191C22.5759 133.191 26.4586 137.135 26.4586 142.019Z" fill="#505356" stroke="white" stroke-width="0.910973"/>
<ellipse cx="17.8043" cy="23.199" rx="0.910973" ry="0.928279" fill="white"/>
<ellipse cx="17.8043" cy="26.9122" rx="0.910973" ry="0.928279" fill="white"/>
<ellipse cx="17.8043" cy="30.6253" rx="0.910973" ry="0.928279" fill="white"/>
<ellipse cx="17.8043" cy="34.3384" rx="0.910973" ry="0.928279" fill="white"/>
<ellipse cx="17.8043" cy="38.0515" rx="0.910973" ry="0.928279" fill="white"/>
<ellipse cx="17.8043" cy="73.3261" rx="0.910973" ry="0.928279" fill="white"/>
<ellipse cx="17.8043" cy="77.0392" rx="0.910973" ry="0.928279" fill="white"/>
<ellipse cx="17.8043" cy="80.7523" rx="0.910973" ry="0.928279" fill="white"/>
<ellipse cx="17.8043" cy="84.4655" rx="0.910973" ry="0.928279" fill="white"/>
<ellipse cx="17.8043" cy="88.1786" rx="0.910973" ry="0.928279" fill="white"/>
<ellipse cx="17.8043" cy="114.17" rx="0.910973" ry="0.928279" fill="white"/>
<ellipse cx="17.8043" cy="117.884" rx="0.910973" ry="0.928279" fill="white"/>
<ellipse cx="17.8043" cy="121.597" rx="0.910973" ry="0.928279" fill="white"/>
<ellipse cx="17.8043" cy="125.31" rx="0.910973" ry="0.928279" fill="white"/>
<ellipse cx="17.8043" cy="129.023" rx="0.910973" ry="0.928279" fill="white"/>
<defs>
<filter id="filter0_d_1_932" x="0.495756" y="40.8536" width="34.6169" height="35.1362" filterUnits="userSpaceOnUse" color-interpolation-filters="sRGB">
<feFlood flood-opacity="0" result="BackgroundImageFix"/>
<feColorMatrix in="SourceAlpha" type="matrix" values="0 0 0 0 0 0 0 0 0 0 0 0 0 0 0 0 0 0 127 0" result="hardAlpha"/>
<feOffset dy="2.73292"/>
<feGaussianBlur stdDeviation="1.82195"/>
<feComposite in2="hardAlpha" operator="out"/>
<feColorMatrix type="matrix" values="0 0 0 0 0 0 0 0 0 0 0 0 0 0 0 0 0 0 0.2 0"/>
<feBlend mode="normal" in2="BackgroundImageFix" result="effect1_dropShadow_1_932"/>
<feBlend mode="normal" in="SourceGraphic" in2="effect1_dropShadow_1_932" result="shape"/>
</filter>
</defs>
</svg>
