<svg width="52" height="38" viewBox="0 0 52 38" fill="none" xmlns="http://www.w3.org/2000/svg">
<path d="M40.6761 18.1022C39.7428 18.1022 38.8451 18.2485 37.9989 18.5162C37.8326 18.3275 37.6614 18.143 37.4856 17.9628C40.7314 16.7735 44.5918 17.2787 47.5545 20.1189C48.2497 20.7843 49.3001 19.7227 48.6033 19.0541C44.9628 15.5679 40.1493 15.132 36.27 16.8638C35.4627 16.2161 34.5831 15.6609 33.6481 15.209C33.6086 15.1904 33.5706 15.1919 33.5326 15.1802L33.9653 13.8765L35.0362 10.6596C35.5162 10.795 35.8998 11.0363 36.2874 11.2597C36.9723 11.6543 37.7157 11.2239 38.2093 10.5911C38.5913 10.1031 39.3529 8.88496 39.1647 8.29186C38.9772 7.69798 38.0977 6.95077 37.5125 6.95077C35.063 6.95077 35.0678 8.49812 32.2514 8.49812C31.0397 8.49812 30.3113 8.55105 30.2979 9.07566C30.2567 10.8051 31.2034 11.5088 31.7879 11.2332C32.4515 10.9196 33.0051 10.7328 33.4797 10.6355L32.559 13.4056L30.5881 19.3366C26.1662 12.8148 18.7752 11.1694 16.1209 10.7818C16.3891 10.0657 16.6572 9.35041 16.9237 8.63433C17.0139 8.39227 16.9071 8.08482 16.7331 7.91125L15.2011 6.37557C16.5022 5.7669 18.0389 5.58088 19.4214 5.55597C19.468 5.55519 19.5028 5.53573 19.5448 5.52795V5.85797C19.5448 6.06267 19.7108 6.23002 19.9157 6.23002C20.1205 6.23002 20.2866 6.06267 20.2866 5.85797V5.55597H22.8816C22.9808 5.55474 23.0755 5.51492 23.145 5.44522C23.2145 5.37551 23.2531 5.28157 23.2525 5.18392V4.43982C23.2534 4.3421 23.2148 4.24805 23.1452 4.1783C23.0757 4.10855 22.9809 4.0688 22.8816 4.06777H20.2866V3.62645C20.2866 3.42174 20.1205 3.25439 19.9157 3.25439C19.7108 3.25439 19.5448 3.42096 19.5448 3.62645V4.09034C19.5028 4.08411 19.468 4.06699 19.4214 4.06777C17.4789 4.10279 15.251 4.41958 13.609 5.56298C13.2215 5.83306 13.1013 6.37168 13.4588 6.7305L15.3482 8.625L14.5985 10.63L14.5597 10.6277L14.3802 11.2122L12.8893 16.0644C9.58414 15.4441 5.96972 16.2948 3.09005 19.0525C2.39406 19.7211 3.44358 20.7836 4.13879 20.1173C6.58188 17.7768 9.63476 17.0234 12.4496 17.4958L12.2756 18.0617L12.312 18.2072C11.888 18.145 11.4578 18.1014 11.0165 18.1014C6.1105 18.1022 2.11961 22.1044 2.11961 27.0244C2.11961 31.9443 6.1105 35.9466 11.0173 35.9466C15.924 35.9466 19.9149 31.9443 19.9149 27.0244C19.9149 23.1194 17.3975 19.8021 13.908 18.5949C13.88 18.4321 13.8487 18.2699 13.8139 18.1084L13.893 17.85C17.5643 19.0572 20.5255 22.4095 20.6584 27.0407C20.686 28.0105 22.1674 28.0129 22.1397 27.0407C22.1326 26.7772 22.1165 26.5139 22.0915 26.2515H21.9847C21.7863 26.2492 21.5969 26.1697 21.4579 26.0304C21.3189 25.8912 21.2416 25.7034 21.2428 25.5081C21.2428 25.1408 21.5149 24.8489 21.8637 24.7889C21.8113 24.5506 21.7517 24.3139 21.6849 24.0791C21.8566 24.3173 22.0345 24.5445 22.2172 24.764H23.8742C24.2562 24.764 24.5607 25.0598 24.6002 25.4319L26.7847 26.3083C27.6602 26.6593 27.2782 28.0977 26.3908 27.7412L23.6527 26.6422C23.6328 26.7686 23.6225 26.8964 23.6219 27.0244C23.6219 28.6674 24.9498 29.9984 26.5877 29.9984C27.4348 29.9984 28.1933 29.6388 28.7343 29.0675C28.7588 29.0699 28.7809 29.0831 28.8054 29.0831H30.6965C30.8948 29.0806 31.0841 29.0011 31.223 28.8619C31.362 28.7226 31.4394 28.5349 31.4383 28.3398C31.4384 28.1913 31.393 28.0462 31.3083 27.9234C31.2235 27.8006 31.1032 27.7057 30.963 27.6509H31.8101C31.8607 28.381 31.9936 29.0878 32.2103 29.7587L26.549 30.3533C26.4288 30.3689 26.318 30.3751 26.2097 30.3751C24.6342 30.3751 23.2509 28.8091 23.2509 27.0244C23.2509 26.8461 23.2683 26.6718 23.2984 26.5005L22.6839 26.2546L22.6799 26.2515H22.5858C22.537 26.5063 22.5119 26.765 22.5106 27.0244C22.5106 29.2411 24.2055 31.113 26.2105 31.113C26.3513 31.113 26.4928 31.1045 26.6384 31.0866L32.4728 30.474C33.8197 33.6862 36.9889 35.9466 40.6761 35.9466C45.582 35.9466 49.5737 31.9443 49.5737 27.0244C49.5737 22.1044 45.582 18.1022 40.6761 18.1022ZM14.0852 21.9433C14.9629 22.4799 15.6868 23.2283 16.188 24.1176C16.6892 25.0069 16.9512 26.0074 16.949 27.0244C16.949 30.3035 14.2876 32.9725 11.0173 32.9725C7.74688 32.9725 5.0855 30.3035 5.0855 27.0244C5.0855 23.7444 7.74688 21.0762 11.0173 21.0762C11.5748 21.0762 12.1119 21.1595 12.6236 21.3043C12.584 23.033 12.1482 25.1127 10.5435 26.4531L10.5498 26.4608C10.4305 26.5567 10.3441 26.6864 10.3025 26.8323C10.2608 26.9782 10.266 27.1333 10.3172 27.2762C10.3684 27.4192 10.4632 27.5431 10.5886 27.631C10.7141 27.719 10.864 27.7667 11.0181 27.7677C11.1908 27.7648 11.3568 27.7013 11.4863 27.5887L11.4918 27.5964C11.5076 27.5832 11.5203 27.5684 11.5361 27.5552L11.5456 27.5459C13.3409 26.0125 13.9491 23.8417 14.0852 21.9433ZM14.3272 16.438L14.9939 14.2672C16.5393 15.427 17.679 17.2203 18.7507 19.1241C17.5065 17.9049 15.9925 16.9855 14.3272 16.438ZM28.7169 24.9594C28.4437 24.6732 28.1141 24.445 27.7481 24.2888C27.3821 24.1326 26.9875 24.0517 26.5885 24.0511C25.8198 24.0511 25.1254 24.3523 24.5986 24.8333C24.4855 24.7454 24.3716 24.659 24.2641 24.564C24.794 24.0223 25.4781 23.6743 26.2105 23.6743C26.3188 23.6743 26.4296 23.6814 26.5403 23.6954L29.0506 23.9584L28.7169 24.9594ZM29.2895 23.2424L26.6273 22.9622C26.4891 22.9446 26.3498 22.9358 26.2105 22.9357C25.2598 22.9357 24.3811 23.3599 23.7183 24.0394C21.904 22.1426 20.7509 19.3786 19.404 17.3098C18.2904 15.6005 17.0068 14.001 15.4155 12.8973L15.6235 12.221C17.8451 12.5276 25.8854 14.1162 29.9783 21.1712L29.2895 23.2424ZM38.3532 21.5534C38.8493 22.4261 39.2396 23.3533 39.5158 24.3157L35.6349 23.9071C36.2729 22.8656 37.2223 22.0435 38.3532 21.5534ZM39.7096 25.0769C39.7626 25.3128 39.81 25.5509 39.8496 25.7899C39.6969 25.8942 39.5649 26.0265 39.4597 26.1783L34.8123 26.1713C34.8892 25.6336 35.0398 25.1086 35.26 24.6107L39.7096 25.0769ZM33.066 16.5836C33.6853 16.8926 34.2721 17.2468 34.821 17.639C33.6368 18.3871 32.604 19.3452 31.7753 20.4644L33.066 16.5836ZM31.8219 26.1674L31.0998 26.1658C31.1734 25.484 31.3142 24.8349 31.5072 24.2169L32.2111 24.2916C32.0165 24.8909 31.8844 25.519 31.8219 26.1674ZM32.472 23.5755L31.7602 23.5C32.5781 21.4433 34.087 19.7243 36.0359 18.6291C36.2106 18.7918 36.3791 18.9591 36.5436 19.1304C34.7063 20.1059 33.268 21.6762 32.472 23.5755ZM34.7791 27.6533C36.3032 27.6548 37.8359 27.6564 39.3395 27.6564C39.5767 28.16 40.0837 28.5118 40.6761 28.5118C41.4954 28.5118 42.159 27.8471 42.159 27.0251C42.159 26.4344 41.8126 25.9277 41.3135 25.6879C41.2946 25.5704 41.2756 25.4513 41.2542 25.3353C41.9526 25.6023 42.5299 26.1643 42.5299 27.0251C42.5299 28.1312 41.5753 28.7531 40.6286 28.876L35.2608 29.4396C35.0067 28.8724 34.8442 28.2697 34.7791 27.6533ZM40.6761 32.9725C38.547 32.9725 36.6804 31.8369 35.6349 30.1424L40.7156 29.6092C42.2239 29.4115 43.271 28.3499 43.271 27.0244C43.271 25.8078 42.3836 24.8216 41.0771 24.515C40.7924 23.3462 40.3646 22.2158 39.8029 21.1486C40.0916 21.1021 40.3835 21.0779 40.6761 21.0762C43.948 21.0762 46.6078 23.7444 46.6078 27.0244C46.6078 30.3035 43.948 32.9725 40.6761 32.9725Z" fill="white"/>
</svg>
