<svg width="48" height="33" viewBox="0 0 48 33" fill="none" xmlns="http://www.w3.org/2000/svg">
<path d="M38.8575 15.1022C37.9242 15.1022 37.0266 15.2485 36.1803 15.5162C36.014 15.3275 35.8428 15.143 35.667 14.9628C38.9128 13.7735 42.7732 14.2787 45.736 17.1189C46.4312 17.7843 47.4815 16.7227 46.7847 16.0541C43.1442 12.5679 38.3307 12.132 34.4514 13.8638C33.6441 13.2161 32.7645 12.6609 31.8295 12.209C31.79 12.1904 31.752 12.1919 31.7141 12.1802L32.1467 10.8765L33.2176 7.6596C33.6976 7.79503 34.0812 8.03632 34.4688 8.2597C35.1537 8.65432 35.8971 8.2239 36.3907 7.5911C36.7727 7.10308 37.5343 5.88496 37.3461 5.29186C37.1586 4.69798 36.2791 3.95077 35.6939 3.95077C33.2445 3.95077 33.2492 5.49812 30.4328 5.49812C29.2211 5.49812 28.4927 5.55105 28.4793 6.07566C28.4381 7.80515 29.3849 8.50877 29.9693 8.23324C30.6329 7.91956 31.1865 7.73276 31.6611 7.63547L30.7405 10.4056L28.7695 16.3366C24.3476 9.81484 16.9566 8.16941 14.3024 7.7818C14.5705 7.06572 14.8386 6.35041 15.1051 5.63433C15.1953 5.39227 15.0885 5.08482 14.9145 4.91125L13.3825 3.37557C14.6836 2.7669 16.2203 2.58088 17.6028 2.55597C17.6495 2.55519 17.6843 2.53573 17.7262 2.52795V2.85797C17.7262 3.06267 17.8923 3.23002 18.0971 3.23002C18.3019 3.23002 18.468 3.06267 18.468 2.85797V2.55597H21.063C21.1622 2.55474 21.2569 2.51492 21.3264 2.44522C21.3959 2.37551 21.4346 2.28157 21.4339 2.18392V1.43982C21.4348 1.3421 21.3962 1.24805 21.3266 1.1783C21.2571 1.10855 21.1623 1.0688 21.063 1.06777H18.468V0.626445C18.468 0.42174 18.3019 0.254395 18.0971 0.254395C17.8923 0.254395 17.7262 0.420961 17.7262 0.626445V1.09034C17.6843 1.08411 17.6495 1.06699 17.6028 1.06777C15.6603 1.10279 13.4324 1.41958 11.7905 2.56298C11.4029 2.83306 11.2827 3.37168 11.6402 3.7305L13.5296 5.625L12.7799 7.63002L12.7411 7.62768L12.5616 8.21222L11.0707 13.0644C7.76556 12.4441 4.15114 13.2948 1.27146 16.0525C0.575468 16.7211 1.62499 17.7836 2.3202 17.1173C4.76329 14.7768 7.81617 14.0234 10.631 14.4958L10.457 15.0617L10.4934 15.2072C10.0695 15.145 9.6392 15.1014 9.19788 15.1014C4.29192 15.1022 0.301025 19.1044 0.301025 24.0244C0.301025 28.9443 4.29192 32.9466 9.19867 32.9466C14.1054 32.9466 18.0963 28.9443 18.0963 24.0244C18.0963 20.1194 15.5789 16.8021 12.0894 15.5949C12.0615 15.4321 12.0301 15.2699 11.9953 15.1084L12.0744 14.85C15.7458 16.0572 18.7069 19.4095 18.8398 24.0407C18.8674 25.0105 20.3488 25.0129 20.3211 24.0407C20.314 23.7772 20.2979 23.5139 20.2729 23.2515H20.1661C19.9677 23.2492 19.7783 23.1697 19.6393 23.0304C19.5003 22.8912 19.423 22.7034 19.4242 22.5081C19.4242 22.1408 19.6963 21.8489 20.0451 21.7889C19.9927 21.5506 19.9331 21.3139 19.8664 21.0791C20.038 21.3173 20.2159 21.5445 20.3986 21.764H22.0556C22.4376 21.764 22.7421 22.0598 22.7816 22.4319L24.9661 23.3083C25.8416 23.6593 25.4596 25.0977 24.5722 24.7412L21.8341 23.6422C21.8142 23.7686 21.8039 23.8964 21.8033 24.0244C21.8033 25.6674 23.1312 26.9984 24.7692 26.9984C25.6162 26.9984 26.3747 26.6388 26.9157 26.0675C26.9402 26.0699 26.9623 26.0831 26.9868 26.0831H28.8779C29.0762 26.0806 29.2655 26.0011 29.4044 25.8619C29.5434 25.7226 29.6208 25.5349 29.6198 25.3398C29.6198 25.1913 29.5745 25.0462 29.4897 24.9234C29.4049 24.8006 29.2847 24.7057 29.1444 24.6509H29.9915C30.0421 25.381 30.175 26.0878 30.3917 26.7587L24.7304 27.3533C24.6102 27.3689 24.4995 27.3751 24.3911 27.3751C22.8156 27.3751 21.4323 25.8091 21.4323 24.0244C21.4323 23.8461 21.4497 23.6718 21.4798 23.5005L20.8653 23.2546L20.8613 23.2515H20.7672C20.7184 23.5063 20.6933 23.765 20.6921 24.0244C20.6921 26.2411 22.387 28.113 24.3919 28.113C24.5327 28.113 24.6742 28.1045 24.8198 28.0866L30.6543 27.474C32.0012 30.6862 35.1703 32.9466 38.8575 32.9466C43.7635 32.9466 47.7551 28.9443 47.7551 24.0244C47.7551 19.1044 43.7635 15.1022 38.8575 15.1022ZM12.2666 18.9433C13.1443 19.4799 13.8682 20.2283 14.3694 21.1176C14.8706 22.0069 15.1326 23.0074 15.1304 24.0244C15.1304 27.3035 12.469 29.9725 9.19867 29.9725C5.92829 29.9725 3.26691 27.3035 3.26691 24.0244C3.26691 20.7444 5.92829 18.0762 9.19867 18.0762C9.75626 18.0762 10.2933 18.1595 10.805 18.3043C10.7654 20.033 10.3297 22.1127 8.72492 23.4531L8.73125 23.4608C8.6119 23.5567 8.52551 23.6864 8.48387 23.8323C8.44223 23.9782 8.44737 24.1333 8.49859 24.2762C8.5498 24.4192 8.6446 24.5431 8.77004 24.631C8.89548 24.719 9.04544 24.7667 9.19946 24.7677C9.37222 24.7648 9.53826 24.7013 9.66768 24.5887L9.67321 24.5964C9.68903 24.5832 9.70168 24.5684 9.7175 24.5552L9.72699 24.5459C11.5223 23.0125 12.1305 20.8417 12.2666 18.9433ZM12.5086 13.438L13.1753 11.2672C14.7207 12.427 15.8604 14.2203 16.9321 16.1241C15.6879 14.9049 14.1739 13.9855 12.5086 13.438ZM26.8983 21.9594C26.6252 21.6732 26.2955 21.445 25.9295 21.2888C25.5635 21.1326 25.1689 21.0517 24.7699 21.0511C24.0012 21.0511 23.3068 21.3523 22.78 21.8333C22.6669 21.7454 22.553 21.659 22.4455 21.564C22.9754 21.0223 23.6595 20.6743 24.3919 20.6743C24.5002 20.6743 24.611 20.6814 24.7217 20.6954L27.232 20.9584L26.8983 21.9594ZM27.4709 20.2424L24.8087 19.9622C24.6705 19.9446 24.5313 19.9358 24.3919 19.9357C23.4412 19.9357 22.5625 20.3599 21.8998 21.0394C20.0854 19.1426 18.9323 16.3786 17.5854 14.3098C16.4718 12.6005 15.1882 11.001 13.5969 9.89735L13.8049 9.22096C16.0265 9.52763 24.0668 11.1162 28.1597 18.1712L27.4709 20.2424ZM36.5346 18.5534C37.0308 19.4261 37.421 20.3533 37.6972 21.3157L33.8163 20.9071C34.4543 19.8656 35.4037 19.0435 36.5346 18.5534ZM37.891 22.0769C37.944 22.3128 37.9915 22.5509 38.031 22.7899C37.8784 22.8942 37.7463 23.0265 37.6411 23.1783L32.9937 23.1713C33.0706 22.6336 33.2212 22.1086 33.4414 21.6107L37.891 22.0769ZM31.2474 13.5836C31.8667 13.8926 32.4536 14.2468 33.0024 14.639C31.8182 15.3871 30.7854 16.3452 29.9567 17.4644L31.2474 13.5836ZM30.0033 23.1674L29.2812 23.1658C29.3548 22.484 29.4956 21.8349 29.6886 21.2169L30.3925 21.2916C30.1979 21.8909 30.0658 22.519 30.0033 23.1674ZM30.6535 20.5755L29.9417 20.5C30.7595 18.4433 32.2684 16.7243 34.2173 15.6291C34.3921 15.7918 34.5605 15.9591 34.725 16.1304C32.8877 17.1059 31.4494 18.6762 30.6535 20.5755ZM32.9605 24.6533C34.4846 24.6548 36.0174 24.6564 37.5209 24.6564C37.7581 25.16 38.2651 25.5118 38.8575 25.5118C39.6769 25.5118 40.3404 24.8471 40.3404 24.0251C40.3404 23.4344 39.994 22.9277 39.495 22.6879C39.476 22.5704 39.457 22.4513 39.4356 22.3353C40.134 22.6023 40.7114 23.1643 40.7114 24.0251C40.7114 25.1312 39.7567 25.7531 38.81 25.876L33.4422 26.4396C33.1881 25.8724 33.0256 25.2697 32.9605 24.6533ZM38.8575 29.9725C36.7284 29.9725 34.8619 28.8369 33.8163 27.1424L38.897 26.6092C40.4053 26.4115 41.4524 25.3499 41.4524 24.0244C41.4524 22.8078 40.565 21.8216 39.2585 21.515C38.9738 20.3462 38.546 19.2158 37.9843 18.1486C38.273 18.1021 38.565 18.0779 38.8575 18.0762C42.1294 18.0762 44.7892 20.7444 44.7892 24.0244C44.7892 27.3035 42.1294 29.9725 38.8575 29.9725Z" fill="black"/>
</svg>
